<svg width="157" height="158" viewBox="0 0 157 158" fill="none" xmlns="http://www.w3.org/2000/svg">
<path d="M4 139.7L11.44 98.48C11.48 98.32 11.58 98.24 11.74 98.24H20.44C20.6 98.24 20.7 98.32 20.74 98.48L27.88 139.7C27.92 139.9 27.84 140 27.64 140H20.98C20.82 140 20.72 139.9 20.68 139.7L20.02 135.32H11.86L11.2 139.7C11.16 139.9 11.06 140 10.9 140H4.24C4.08 140 4 139.9 4 139.7ZM13.06 128.9H18.82L16.36 112.04L16 109.82L15.76 112.04L13.06 128.9ZM34.7744 140C34.6144 140 34.5344 139.9 34.5344 139.7V105.5H26.7344C26.5344 105.5 26.4344 105.4 26.4344 105.2L26.4944 98.48C26.4944 98.32 26.5744 98.24 26.7344 98.24H49.5344C49.7344 98.24 49.8344 98.32 49.8344 98.48V105.2C49.8344 105.4 49.7544 105.5 49.5944 105.5H41.7344L41.7944 139.7C41.7944 139.9 41.7144 140 41.5544 140H34.7744ZM53.0378 140C52.8778 140 52.7978 139.9 52.7978 139.7L52.8578 98.48C52.8578 98.32 52.9378 98.24 53.0978 98.24H72.3578C72.5178 98.24 72.5978 98.34 72.5978 98.54V105.26C72.5978 105.42 72.5178 105.5 72.3578 105.5H60.0578V114.86H72.3578C72.5178 114.86 72.5978 114.94 72.5978 115.1L72.6578 121.88C72.6578 122.04 72.5778 122.12 72.4178 122.12H60.0578V132.62H72.4178C72.5778 132.62 72.6578 132.72 72.6578 132.92V139.76C72.6578 139.92 72.5778 140 72.4178 140H53.0378ZM78.5331 140C78.2131 140 78.0531 139.86 78.0531 139.58L77.9931 98.72C77.9931 98.4 78.1531 98.24 78.4731 98.24H83.8731L94.0131 121.88L93.7131 98.72C93.7131 98.4 93.8931 98.24 94.2531 98.24H100.193C100.433 98.24 100.553 98.4 100.553 98.72L100.613 139.64C100.613 139.88 100.513 140 100.313 140H95.0331L84.6531 117.92L85.0731 139.52C85.0731 139.84 84.8931 140 84.5331 140H78.5331ZM106.065 140C105.905 140 105.825 139.9 105.825 139.7L105.885 98.48C105.885 98.32 105.965 98.24 106.125 98.24H125.385C125.545 98.24 125.625 98.34 125.625 98.54V105.26C125.625 105.42 125.545 105.5 125.385 105.5H113.085V114.86H125.385C125.545 114.86 125.625 114.94 125.625 115.1L125.685 121.88C125.685 122.04 125.605 122.12 125.445 122.12H113.085V132.62H125.445C125.605 132.62 125.685 132.72 125.685 132.92V139.76C125.685 139.92 125.605 140 125.445 140H106.065ZM128.395 139.7L135.835 98.48C135.875 98.32 135.975 98.24 136.135 98.24H144.835C144.995 98.24 145.095 98.32 145.135 98.48L152.275 139.7C152.315 139.9 152.235 140 152.035 140H145.375C145.215 140 145.115 139.9 145.075 139.7L144.415 135.32H136.255L135.595 139.7C135.555 139.9 135.455 140 135.295 140H128.635C128.475 140 128.395 139.9 128.395 139.7ZM137.455 128.9H143.215L140.755 112.04L140.395 109.82L140.155 112.04L137.455 128.9Z" fill="white"/>
<path d="M79.14 86C83.2821 86 86.64 82.6421 86.64 78.5C86.64 74.3579 83.2821 71 79.14 71C74.9979 71 71.64 74.3579 71.64 78.5C71.64 82.6421 74.9979 86 79.14 86Z" stroke="white" stroke-width="5"/>
<path d="M79.14 3.5V71.5" stroke="white" stroke-width="4"/>
<path d="M57.14 90H14.64C35.89 90 78.64 40 78.64 3" stroke="white" stroke-width="5" stroke-linecap="round" stroke-linejoin="round"/>
<path d="M100.64 90H143.14C121.89 90 79.14 40 79.14 3" stroke="white" stroke-width="5" stroke-linecap="round" stroke-linejoin="round"/>
</svg>
